<!-- Generated by IcoMoon.io -->
<svg version="1.1" xmlns="http://www.w3.org/2000/svg" width="1344" height="1024" viewBox="0 0 1344 1024">
<title></title>
<g id="icomoon-ignore">
</g>
<path fill="#828282" d="M1328 320c-8.832 0-16 7.168-16 16v640c0 8.832-7.168 16-16 16h-1248c-8.832 0-16-7.168-16-16v-640c0-8.832-7.168-16-16-16s-16 7.168-16 16v640c0 26.464 21.536 48 48 48h1248c26.464 0 48-21.536 48-48v-640c0-8.832-7.168-16-16-16z"></path>
<path fill="#828282" d="M1296 0h-1248c-26.464 0-48 21.536-48 48v192c0 8.832 7.168 16 16 16h1312c8.832 0 16-7.168 16-16v-192c0-26.464-21.536-48-48-48zM1312 224h-1280v-176c0-8.832 7.168-16 16-16h1248c8.832 0 16 7.168 16 16v176z"></path>
<path fill="#828282" d="M560 896c8.832 0 16-7.168 16-16v-512c0-8.832-7.168-16-16-16h-416c-8.832 0-16 7.168-16 16v512c0 8.832 7.168 16 16 16h416zM160 384h384v480h-384v-480z"></path>
<path fill="#828282" d="M720 480h480c8.832 0 16-7.168 16-16s-7.168-16-16-16h-480c-8.832 0-16 7.168-16 16s7.168 16 16 16z"></path>
<path fill="#828282" d="M720 640h480c8.832 0 16-7.168 16-16s-7.168-16-16-16h-480c-8.832 0-16 7.168-16 16s7.168 16 16 16z"></path>
<path fill="#828282" d="M720 800h480c8.832 0 16-7.168 16-16s-7.168-16-16-16h-480c-8.832 0-16 7.168-16 16s7.168 16 16 16z"></path>
<path fill="#828282" d="M160 128c0 17.673-14.327 32-32 32s-32-14.327-32-32c0-17.673 14.327-32 32-32s32 14.327 32 32z"></path>
<path fill="#828282" d="M288 128c0 17.673-14.327 32-32 32s-32-14.327-32-32c0-17.673 14.327-32 32-32s32 14.327 32 32z"></path>
<path fill="#828282" d="M416 128c0 17.673-14.327 32-32 32s-32-14.327-32-32c0-17.673 14.327-32 32-32s32 14.327 32 32z"></path>
</svg>
