<!-- Generated by IcoMoon.io -->
<svg version="1.1" xmlns="http://www.w3.org/2000/svg" width="1088" height="1024" viewBox="0 0 1088 1024">
<title></title>
<g id="icomoon-ignore">
</g>
<path fill="#828282" d="M48.384 896h575.616c26.464 0 48-21.536 48-48v-608c0-0.736-0.32-1.376-0.416-2.080s-0.224-1.312-0.416-1.984c-0.736-2.752-1.92-5.312-3.904-7.264l-223.968-223.968c-1.952-1.952-4.512-3.136-7.264-3.904-0.672-0.192-1.28-0.32-1.984-0.416-0.672-0.064-1.312-0.384-2.048-0.384h-383.808c-26.56 0-48.192 21.536-48.192 48v800c0 26.464 21.696 48 48.384 48zM448 54.624l169.376 169.376h-153.376c-8.8 0-16-7.168-16-16v-153.376zM32 48c0-8.832 7.264-16 16.192-16h367.808v176c0 26.464 21.536 48 48 48h176v592c0 8.832-7.2 16-16 16h-575.616c-9.056 0-16.384-7.168-16.384-16v-800z"></path>
<path fill="#828282" d="M144 384h384c8.832 0 16-7.168 16-16s-7.168-16-16-16h-384c-8.832 0-16 7.168-16 16s7.168 16 16 16z"></path>
<path fill="#828282" d="M144 512h384c8.832 0 16-7.168 16-16s-7.168-16-16-16h-384c-8.832 0-16 7.168-16 16s7.168 16 16 16z"></path>
<path fill="#828282" d="M144 256h160c8.832 0 16-7.168 16-16s-7.168-16-16-16h-160c-8.832 0-16 7.168-16 16s7.168 16 16 16z"></path>
<path fill="#828282" d="M144 640h384c8.832 0 16-7.168 16-16s-7.168-16-16-16h-384c-8.832 0-16 7.168-16 16s7.168 16 16 16z"></path>
<path fill="#828282" d="M144 768h384c8.832 0 16-7.168 16-16s-7.168-16-16-16h-384c-8.832 0-16 7.168-16 16s7.168 16 16 16z"></path>
<path fill="#828282" d="M688 160h144v176c0 26.464 21.536 48 48 48h176v592c0 8.832-7.2 16-16 16h-575.616c-9.056 0-16.384-7.168-16.384-16v-32c0-8.832-7.168-16-16-16s-16 7.168-16 16v32c0 26.464 21.696 48 48.384 48h575.616c26.464 0 48-21.536 48-48v-608c0-0.736-0.32-1.376-0.416-2.080s-0.224-1.312-0.416-1.984c-0.736-2.752-1.92-5.312-3.904-7.264l-223.968-223.968c-1.952-1.984-4.544-3.168-7.296-3.904-0.672-0.192-1.248-0.288-1.952-0.384-0.672-0.096-1.312-0.416-2.048-0.416h-160c-8.832 0-16 7.168-16 16s7.168 16 16 16zM880 352c-8.8 0-16-7.168-16-16v-153.376l169.376 169.376h-153.376z"></path>
<path fill="#828282" d="M752 512h192c8.832 0 16-7.168 16-16s-7.168-16-16-16h-192c-8.832 0-16 7.168-16 16s7.168 16 16 16z"></path>
<path fill="#828282" d="M752 640h192c8.832 0 16-7.168 16-16s-7.168-16-16-16h-192c-8.832 0-16 7.168-16 16s7.168 16 16 16z"></path>
<path fill="#828282" d="M752 768h192c8.832 0 16-7.168 16-16s-7.168-16-16-16h-192c-8.832 0-16 7.168-16 16s7.168 16 16 16z"></path>
<path fill="#828282" d="M752 896h192c8.832 0 16-7.168 16-16s-7.168-16-16-16h-192c-8.832 0-16 7.168-16 16s7.168 16 16 16z"></path>
</svg>
