<!-- Generated by IcoMoon.io -->
<svg version="1.1" xmlns="http://www.w3.org/2000/svg" width="1056" height="1024" viewBox="0 0 1056 1024">
<title></title>
<path fill="#FCCA2E" d="M48 896h832c26.464 0 48-21.536 48-48v-800c0-26.464-21.536-48-48-48h-832c-26.464 0-48 21.536-48 48v800c0 26.464 21.536 48 48 48zM32 48c0-8.832 7.2-16 16-16h832c8.8 0 16 7.168 16 16v800c0 8.832-7.2 16-16 16h-832c-8.8 0-16-7.168-16-16v-800z"></path>
<path fill="#FCCA2E" d="M576 352c35.296 0 64-28.704 64-64s-28.704-64-64-64-64 28.704-64 64 28.704 64 64 64zM576 256c17.664 0 32 14.368 32 32s-14.336 32-32 32-32-14.368-32-32 14.336-32 32-32z"></path>
<path fill="#fff" d="M112 736h704c8.832 0 16-7.168 16-16v-608c0-8.832-7.168-16-16-16h-704c-8.832 0-16 7.168-16 16v608c0 8.832 7.168 16 16 16zM128 704v-148.416c0.704-0.512 1.504-0.8 2.144-1.44l163.712-163.712c8.32-8.32 22.784-8.288 31.104 0l240.672 240.672c3.136 3.136 7.232 4.672 11.328 4.672 3.968 0 7.936-1.472 11.040-4.416l123.712-117.504c4.16-4.16 9.696-6.464 15.552-6.464 5.888 0 11.36 2.304 14.848 5.696l57.888 65.888v125.024h-672zM800 128v402.592l-34.592-39.296c-10.144-10.208-23.712-15.84-38.112-15.84-0.032 0-0.032 0-0.032 0-14.432 0-28 5.632-37.92 15.552l-112.128 106.496-229.632-229.664c-20.448-20.416-55.968-20.384-76.352 0l-143.232 143.232v-383.072h672z"></path>
<path fill="#fff" d="M144 930.656c-8.832 0-16 7.168-16 16v29.344c0 26.464 21.536 48 48 48h832c26.464 0 48-21.536 48-48v-832c0-26.464-21.536-48-48-48h-29.344c-8.832 0-16 7.168-16 16s7.168 16 16 16h29.344c8.8 0 16 7.168 16 16v832c0 8.832-7.2 16-16 16h-832c-8.8 0-16-7.168-16-16v-29.344c0-8.832-7.168-16-16-16z"></path>
</svg>
