<svg width="30" height="23" viewBox="0 0 30 23" fill="none" xmlns="http://www.w3.org/2000/svg">
<path d="M29.4141 7.94141C28.0664 8.99609 26.3672 10.2852 20.3906 14.6211C19.2188 15.5 17.0508 17.4336 15 17.4336C12.8906 17.4336 10.7813 15.5 9.5508 14.6211C3.57424 10.2852 1.87502 8.99609 0.527367 7.94141C0.292992 7.76562 2.28882e-05 7.94141 2.28882e-05 8.23438V20.1875C2.28882e-05 21.7695 1.23049 23 2.81252 23H27.1875C28.711 23 30 21.7695 30 20.1875V8.23438C30 7.94141 29.6485 7.76562 29.4141 7.94141ZM15 15.5C16.3477 15.5586 18.2813 13.8008 19.2774 13.0977C27.0703 7.47266 27.6563 6.94531 29.4141 5.53906C29.7656 5.30469 30 4.89453 30 4.42578V3.3125C30 1.78906 28.711 0.5 27.1875 0.5H2.81252C1.23049 0.5 2.28882e-05 1.78906 2.28882e-05 3.3125V4.42578C2.28882e-05 4.89453 0.175804 5.30469 0.527367 5.53906C2.28518 6.94531 2.87112 7.47266 10.6641 13.0977C11.6602 13.8008 13.5938 15.5586 15 15.5Z" fill="#0C0023"/>
</svg>
