<svg width="30" height="31" viewBox="0 0 30 31" fill="none" xmlns="http://www.w3.org/2000/svg">
<path d="M29.1211 21.9609L22.5586 19.1484C22.3828 19.0898 22.2071 19.0312 21.9727 19.0312C21.5625 19.0312 21.1524 19.2656 20.918 19.5586L17.9883 23.1328C13.418 20.9648 9.78518 17.332 7.61721 12.7617L11.1914 9.83203C11.4844 9.59766 11.7188 9.1875 11.7188 8.71875C11.7188 8.54297 11.6602 8.36719 11.6016 8.19141L8.78909 1.62891C8.55471 1.10156 8.02737 0.75 7.44143 0.75C7.38284 0.75 7.26565 0.808594 7.14846 0.808594L1.05471 2.21484C0.410179 2.39062 2.28882e-05 2.91797 2.28882e-05 3.5625C2.28882e-05 18.6211 12.1289 30.75 27.1875 30.75C27.8321 30.75 28.3594 30.3398 28.5352 29.6953L29.9414 23.6016C29.9414 23.4844 29.9414 23.3672 29.9414 23.3086C29.9414 22.7227 29.5899 22.1953 29.1211 21.9609Z" fill="#0C0023"/>
</svg>
