<svg xmlns="http://www.w3.org/2000/svg" version="1.1" xmlns:xlink="http://www.w3.org/1999/xlink" xmlns:svgjs="http://svgjs.dev/svgjs" width="1000" height="623" viewBox="0 0 1000 623"><g transform="matrix(1,0,0,1,-0.6060606060605664,0.2522267206477409)"><svg viewBox="0 0 396 247" data-background-color="#000000" preserveAspectRatio="xMidYMid meet" height="623" width="1000" xmlns="http://www.w3.org/2000/svg" xmlns:xlink="http://www.w3.org/1999/xlink"><g id="tight-bounds" transform="matrix(1,0,0,1,0.2400000000000091,-0.09999999999999432)"><svg viewBox="0 0 395.52 247.2" height="247.2" width="395.52"><g><svg></svg></g><g><svg viewBox="0 0 395.52 247.2" height="247.2" width="395.52"><g transform="matrix(1,0,0,1,75.54432,95.81436389183291)"><svg viewBox="0 0 244.43135999999998 55.57127221633416" height="55.57127221633416" width="244.43135999999998"><g><svg viewBox="0 0 244.43135999999998 55.57127221633416" height="55.57127221633416" width="244.43135999999998"><g><svg viewBox="0 0 316.1380812944814 71.87373736972705" height="55.57127221633416" width="244.43135999999998"><g transform="matrix(1,0,0,1,71.70672129448143,0)"><svg viewBox="0 0 244.43135999999998 71.87373736972705" height="71.87373736972705" width="244.43135999999998"><g><svg viewBox="0 0 244.43135999999998 71.87373736972705" height="71.87373736972705" width="244.43135999999998"><g><svg viewBox="0 0 244.43135999999998 71.87373736972705" height="71.87373736972705" width="244.43135999999998"><g transform="matrix(1,0,0,1,0,0)"><svg width="244.43135999999998" viewBox="1 -35.04999923706055 120.88999938964844 35.54999923706055" height="71.87373736972705" data-palette-color="#d2d6dc"><path d="M1-7.55L2.8-7.55Q5-1 11.3-1L11.3-1Q15.55-1 17.23-3.43 18.9-5.85 18.9-10.1L18.9-10.1 18.9-35 20.4-35 20.4-10.1Q20.4 0.5 11.3 0.5L11.3 0.5Q7 0.5 4.67-1.65 2.35-3.8 1-7.55L1-7.55ZM33.85-33.5L33.85-35 53-35 53-15.05Q53-7.05 50.25-3.28 47.5 0.5 41.35 0.5 35.2 0.5 32.45-3.28 29.7-7.05 29.7-15.05L29.7-15.05 29.7-35 31.2-35 31.2-15.05Q31.2-10.9 31.9-8.08 32.6-5.25 34-3.75 35.4-2.25 37.15-1.63 38.9-1 41.35-1 43.8-1 45.55-1.63 47.3-2.25 48.7-3.75 50.1-5.25 50.8-8.08 51.5-10.9 51.5-15.05L51.5-15.05 51.5-33.5 33.85-33.5ZM63.95-1.5L83.34-1.5 83.34 0 62.45 0 62.45-35 63.95-35 63.95-1.5ZM90.54-35L90.54 0 89.04 0 89.04-35 90.54-35ZM101.34 0L101.34-1.5 119.74-1.5 109.14-30.65 97.99 0 96.39 0 109.14-35.05 121.89 0 101.34 0Z" opacity="1" transform="matrix(1,0,0,1,0,0)" fill="#d2d6dc" class="undefined-text-0" data-fill-palette-color="primary" id="text-0"></path></svg></g></svg></g></svg></g></svg></g><g transform="matrix(1,0,0,1,0,11.104492423622826)"><svg viewBox="0 0 54.73905687118574 49.6647525224814" height="49.6647525224814" width="54.73905687118574"><g><svg xmlns="http://www.w3.org/2000/svg" xmlns:xlink="http://www.w3.org/1999/xlink" version="1.1" x="0" y="0" viewBox="18.275001525878906 21.875 64.7249984741211 58.724998474121094" enable-background="new 0 0 100 100" xml:space="preserve" height="49.6647525224814" width="54.73905687118574" class="icon-icon-0" data-fill-palette-color="accent" id="icon-0"><g fill="#d2d6dc" data-fill-palette-color="accent"><path fill="#d2d6dc" d="M82.7 50.6L63.6 31.3c-0.3-0.3-0.9-0.3-1.2 0-0.3 0.3-0.3 0.9 0 1.2l18.6 18.7L62.3 70c-0.3 0.3-0.3 0.9 0 1.2 0.2 0.2 0.4 0.3 0.6 0.3 0.2 0 0.5-0.1 0.6-0.3l19.2-19.3C83.1 51.5 83.1 51 82.7 50.6z" data-fill-palette-color="accent"></path><path fill="#d2d6dc" d="M38.9 31.3c-0.3-0.3-0.9-0.3-1.2 0L18.5 50.6c-0.3 0.3-0.3 0.9 0 1.2l19.2 19.3c0.2 0.2 0.4 0.3 0.6 0.3 0.2 0 0.4-0.1 0.6-0.3 0.3-0.3 0.3-0.9 0-1.2L20.4 51.2l18.6-18.7C39.3 32.2 39.3 31.6 38.9 31.3z" data-fill-palette-color="accent"></path><path fill="#d2d6dc" d="M59.8 21.9c-0.5-0.1-1 0.1-1.1 0.6L40.8 79.5c-0.1 0.5 0.1 1 0.6 1.1 0.1 0 0.2 0 0.3 0 0.4 0 0.7-0.2 0.8-0.6L60.4 23C60.5 22.5 60.3 22 59.8 21.9z" data-fill-palette-color="accent"></path></g></svg></g></svg></g></svg></g></svg></g></svg></g><g><path d="M0 123.6c0-68.262 55.338-123.6 123.6-123.6 56.345 0 103.884 37.702 118.766 89.255l-2.611 0c-14.806-50.15-61.206-86.749-116.155-86.749-66.879 0-121.094 54.216-121.094 121.094 0 66.879 54.216 121.094 121.094 121.094 54.949 0 101.349-36.599 116.155-86.749l2.611 0c-14.882 51.553-62.421 89.255-118.766 89.255-68.262 0-123.6-55.338-123.6-123.6z" fill="#d2d6dc" stroke="transparent" data-fill-palette-color="tertiary"></path></g></svg></g><defs></defs></svg><rect width="395.52" height="247.2" fill="none" stroke="none" visibility="hidden"></rect></g></svg></g></svg>